0
SECTION
2
HEADER
9
$INSUNITS
70
4
9
$ACADVER
1
AC1014
9
$HANDSEED
5
FFFF
0
ENDSEC
0
SECTION
2
TABLES
0
TABLE
2
VPORT
5
8
100
AcDbSymbolTable
0
ENDTAB
0
TABLE
2
LTYPE
5
5
100
AcDbSymbolTable
0
LTYPE
5
14
100
AcDbSymbolTableRecord
100
AcDbLinetypeTableRecord
2
BYBLOCK
70
0
0
LTYPE
5
15
100
AcDbSymbolTableRecord
100
AcDbLinetypeTableRecord
2
BYLAYER
70
0
0
LTYPE
5
16
100
AcDbSymbolTableRecord
100
AcDbLinetypeTableRecord
2
DASHED
70
0
3
Dashed __ __ __ __ __ __ __ __ __ __ __ __ __ _
72
65
73
2
40
0.75
49
0.5
74
0
49
-0.25
74
0
0
ENDTAB
0
TABLE
2
LAYER
5
2
100
AcDbSymbolTable
70
3
0
LAYER
5
50
100
AcDbSymbolTableRecord
100
AcDbLayerTableRecord
2
1
70
0
62
7
6
DASHED
0
LAYER
5
51
100
AcDbSymbolTableRecord
100
AcDbLayerTableRecord
2
0
70
0
62
7
6
CONTINUOUS
0
ENDTAB
0
TABLE
2
STYLE
5
3
100
AcDbSymbolTable
70
1
0
STYLE
5
11
100
AcDbSymbolTableRecord
100
AcDbTextStyleTableRecord
2
STANDARD
70
0
0
ENDTAB
0
TABLE
2
VIEW
5
6
100
AcDbSymbolTable
70
0
0
ENDTAB
0
TABLE
2
UCS
5
7
100
AcDbSymbolTable
70
0
0
ENDTAB
0
TABLE
2
APPID
5
9
100
AcDbSymbolTable
70
2
0
APPID
5
12
100
AcDbSymbolTableRecord
100
AcDbRegAppTableRecord
2
ACAD
70
0
0
ENDTAB
0
TABLE
2
DIMSTYLE
5
A
100
AcDbSymbolTable
70
1
0
ENDTAB
0
TABLE
2
BLOCK_RECORD
5
1
100
AcDbSymbolTable
70
1
0
BLOCK_RECORD
5
1F
100
AcDbSymbolTableRecord
100
AcDbBlockTableRecord
2
*MODEL_SPACE
0
BLOCK_RECORD
5
1B
100
AcDbSymbolTableRecord
100
AcDbBlockTableRecord
2
*PAPER_SPACE
0
ENDTAB
0
ENDSEC
0
SECTION
2
BLOCKS
0
BLOCK
5
20
100
AcDbEntity
100
AcDbBlockBegin
2
*MODEL_SPACE
0
ENDBLK
5
21
100
AcDbEntity
100
AcDbBlockEnd
0
BLOCK
5
1C
100
AcDbEntity
100
AcDbBlockBegin
2
*PAPER_SPACE
0
ENDBLK
5
1D
100
AcDbEntity
100
AcDbBlockEnd
0
ENDSEC
0
SECTION
2
ENTITIES
0
LWPOLYLINE
5
100
100
AcDbEntity
8
0
100
AcDbPolyline
90
4
70
1
43
0.0
10
98.154595122200675
20
-84.358205406318859
10
98.154595122200675
20
20.641794593681144
10
-26.845404877799321
20
20.641794593681144
10
-26.845404877799321
20
-84.358205406318859
0
LWPOLYLINE
5
101
100
AcDbEntity
8
0
100
AcDbPolyline
90
4
70
1
43
0.0
10
375
20
425
10
235
20
425
10
235
20
305
10
375
20
305
0
LWPOLYLINE
5
102
100
AcDbEntity
8
0
100
AcDbPolyline
90
4
70
1
43
0.0
10
230
20
425
10
195
20
425
10
195
20
305
10
230
20
305
0
LWPOLYLINE
5
103
100
AcDbEntity
8
0
100
AcDbPolyline
90
4
70
1
43
0.0
10
375
20
435
10
235
20
435
10
235
20
470
10
375
20
470
0
LWPOLYLINE
5
104
100
AcDbEntity
8
0
100
AcDbPolyline
90
4
70
1
43
0.0
10
390
20
425
10
425
20
425
10
425
20
305
10
390
20
305
0
LWPOLYLINE
5
105
100
AcDbEntity
8
0
100
AcDbPolyline
90
4
70
1
43
0.0
10
375.03208218290399
20
195.5414432469471
10
235.03208218290393
20
195.5414432469471
10
235.03208218290393
20
75.541443246947097
10
375.03208218290399
20
75.541443246947097
0
LINE
5
106
100
AcDbEntity
8
0
100
AcDbLine
10
235.03208218290393
20
195.5414432469471
30
0
11
246.03208218290393
21
195.5414432469471
31
0
0
LINE
5
107
100
AcDbEntity
8
0
100
AcDbLine
10
235.03208218290393
20
184.24144324694711
30
0
11
235.03208218290393
21
195.5414432469471
31
0
0
CIRCLE
5
108
100
AcDbEntity
8
0
100
AcDbCircle
10
256.03208218290393
20
184.24144324694711
30
0
40
5
210
0
220
0
230
1
0
LWPOLYLINE
5
109
100
AcDbEntity
8
0
100
AcDbPolyline
90
8
70
1
43
0.0
10
375
20
300.01062406746394
10
235
20
300.01062406746394
10
235
20
265.01062406746394
10
235
20
270.00000402331352
10
240.00000357627869
20
270.00000402331352
10
240.00000357627869
20
265.01062406746394
10
235
20
265.01062406746394
10
375
20
265.01062406746394
0
LWPOLYLINE
5
110
100
AcDbEntity
8
0
100
AcDbPolyline
90
4
70
1
43
0.0
10
235
20
410
10
240
20
410
10
240
20
395
10
235
20
395
0
LWPOLYLINE
5
111
100
AcDbEntity
8
0
100
AcDbPolyline
90
4
70
1
43
0.0
10
235
20
380
10
240
20
380
10
240
20
365
10
235
20
365
0
LWPOLYLINE
5
112
100
AcDbEntity
8
0
100
AcDbPolyline
90
4
70
1
43
0.0
10
235
20
350
10
240
20
350
10
240
20
335
10
235
20
335
0
LINE
5
113
100
AcDbEntity
8
0
100
AcDbLine
10
235
20
310
30
0
11
235
21
325
31
0
0
LWPOLYLINE
5
114
100
AcDbEntity
8
0
100
AcDbPolyline
90
8
70
1
43
0.0
10
230
20
425
10
225
20
425
10
220
20
425
10
220
20
420
10
225
20
420
10
225
20
425
10
225
20
410
10
230
20
410
0
LWPOLYLINE
5
115
100
AcDbEntity
8
0
100
AcDbPolyline
90
4
70
1
43
0.0
10
230
20
395
10
225
20
395
10
225
20
380
10
230
20
380
0
LWPOLYLINE
5
116
100
AcDbEntity
8
0
100
AcDbPolyline
90
4
70
1
43
0.0
10
230
20
365
10
225
20
365
10
225
20
350
10
230
20
350
0
LINE
5
117
100
AcDbEntity
8
0
100
AcDbLine
10
230
20
325
30
0
11
230
21
335
31
0
0
LWPOLYLINE
5
118
100
AcDbEntity
8
0
100
AcDbPolyline
90
4
70
1
43
0.0
10
230
20
335
10
225
20
335
10
225
20
320
10
230
20
320
0
LINE
5
119
100
AcDbEntity
8
0
100
AcDbLine
10
240
20
305
30
0
11
235
21
305
31
0
0
LINE
5
120
100
AcDbEntity
8
0
100
AcDbLine
10
235
20
305
30
0
11
235
21
319.56716679458435
31
0
0
LWPOLYLINE
5
121
100
AcDbEntity
8
0
100
AcDbPolyline
90
4
70
1
43
0.0
10
235
20
460
10
240
20
460
10
240
20
445
10
235
20
445
0
LWPOLYLINE
5
122
100
AcDbEntity
8
0
100
AcDbPolyline
90
4
70
1
43
0.0
10
205
20
425
10
195
20
425
10
195
20
420
10
205
20
420
0
LWPOLYLINE
5
123
100
AcDbEntity
8
0
100
AcDbPolyline
90
4
70
1
43
0.0
10
415
20
365
10
400
20
365
10
400
20
345
10
415
20
345
0
LWPOLYLINE
5
124
100
AcDbEntity
8
0
100
AcDbPolyline
90
4
70
1
43
0.0
10
365
20
305
10
350
20
305
10
350
20
310
10
365
20
310
0
LWPOLYLINE
5
125
100
AcDbEntity
8
0
100
AcDbPolyline
90
4
70
1
43
0.0
10
335
20
305
10
320
20
305
10
320
20
310
10
335
20
310
0
LWPOLYLINE
5
126
100
AcDbEntity
8
0
100
AcDbPolyline
90
4
70
1
43
0.0
10
305
20
305
10
290
20
305
10
290
20
310
10
305
20
310
0
LWPOLYLINE
5
127
100
AcDbEntity
8
0
100
AcDbPolyline
90
4
70
1
43
0.0
10
275
20
305
10
260
20
305
10
260
20
310
10
275
20
310
0
LWPOLYLINE
5
128
100
AcDbEntity
8
0
100
AcDbPolyline
90
4
70
1
43
0.0
10
375
20
300.01062406746394
10
365
20
300.01062406746394
10
365
20
295
10
375
20
295
0
LWPOLYLINE
5
129
100
AcDbEntity
8
0
100
AcDbPolyline
90
4
70
1
43
0.0
10
349.74753488051306
20
300.01062406746394
10
335
20
300.01062406746394
10
335
20
295
10
349.74753488051306
20
295
0
LWPOLYLINE
5
130
100
AcDbEntity
8
0
100
AcDbPolyline
90
4
70
1
43
0.0
10
319.48893600155338
20
300.01062406746394
10
305.74325548746066
20
300.01062406746394
10
305.74325548746066
20
295
10
319.48893600155338
20
295
0
LWPOLYLINE
5
131
100
AcDbEntity
8
0
100
AcDbPolyline
90
4
70
1
43
0.0
10
289.77485791712121
20
300.01062406746394
10
275
20
300.01062406746394
10
275
20
295
10
289.77485791712121
20
295
0
LINE
5
132
100
AcDbEntity
8
0
100
AcDbLine
10
259.85238176505266
20
300.01062406746394
30
0
11
235.00000350177288
21
300.01062406746394
31
0
0
LINE
5
133
100
AcDbEntity
8
0
100
AcDbLine
10
235.00000350177288
20
300.01062406746394
30
0
11
235.00000350177288
21
295.00000439584255
31
0
0
LWPOLYLINE
5
134
100
AcDbEntity
8
0
100
AcDbPolyline
90
4
70
1
43
0.0
10
365
20
425
10
350
20
425
10
350
20
420
10
365
20
420
0
LWPOLYLINE
5
135
100
AcDbEntity
8
0
100
AcDbPolyline
90
4
70
1
43
0.0
10
335
20
425
10
320
20
425
10
320
20
420
10
335
20
420
0
LWPOLYLINE
5
136
100
AcDbEntity
8
0
100
AcDbPolyline
90
4
70
1
43
0.0
10
305
20
425
10
290
20
425
10
290
20
420
10
305
20
420
0
LWPOLYLINE
5
137
100
AcDbEntity
8
0
100
AcDbPolyline
90
4
70
1
43
0.0
10
275
20
425
10
260
20
425
10
260
20
420
10
275
20
420
0
LWPOLYLINE
5
138
100
AcDbEntity
8
0
100
AcDbPolyline
90
4
70
1
43
0.0
10
259.85238176505266
20
300.01062406746394
10
245
20
300.01062406746394
10
245
20
295
10
259.85238176505266
20
295
0
LWPOLYLINE
5
139
100
AcDbEntity
8
0
100
AcDbPolyline
90
4
70
1
43
0.0
10
240
20
305
10
245
20
305
10
245
20
310
10
240
20
310
0
LWPOLYLINE
5
140
100
AcDbEntity
8
0
100
AcDbPolyline
90
4
70
1
43
0.0
10
240.00000357627869
20
320.00000476837158
10
235.00000350177288
20
320.00000476837158
10
235.00000350177288
20
305.00000454485416
10
240.00000357627869
20
305.00000454485416
0
LWPOLYLINE
5
141
100
AcDbEntity
8
0
100
AcDbPolyline
90
4
70
1
43
0.0
10
230.00000342726707
20
310.00000461935997
10
225.00000335276127
20
310.00000461935997
10
225.00000335276127
20
305.00000454485416
10
230.00000342726707
20
305.00000454485416
0
LWPOLYLINE
5
142
100
AcDbEntity
8
0
100
AcDbPolyline
90
4
70
1
43
0.0
10
260
20
435
10
235
20
435
10
235
20
440
10
260
20
440
0
LWPOLYLINE
5
143
100
AcDbEntity
8
0
100
AcDbPolyline
90
4
70
1
43
0.0
10
290
20
435
10
275
20
435
10
275
20
440
10
290
20
440
0
LWPOLYLINE
5
144
100
AcDbEntity
8
0
100
AcDbPolyline
90
4
70
1
43
0.0
10
320
20
435
10
305
20
435
10
305
20
440
10
320
20
440
0
LWPOLYLINE
5
145
100
AcDbEntity
8
0
100
AcDbPolyline
90
4
70
1
43
0.0
10
350
20
435
10
335
20
435
10
335
20
440
10
350
20
440
0
LWPOLYLINE
5
146
100
AcDbEntity
8
0
100
AcDbPolyline
90
4
70
1
43
0.0
10
365
20
435
10
375
20
435
10
375
20
440
10
365
20
440
0
LWPOLYLINE
5
147
100
AcDbEntity
8
0
100
AcDbPolyline
90
4
70
1
43
0.0
10
420
20
425
10
400
20
425
10
400
20
420
10
420
20
420
0
LWPOLYLINE
5
148
100
AcDbEntity
8
0
100
AcDbPolyline
90
4
70
1
43
0.0
10
375
20
445
10
370
20
445
10
370
20
440
10
375
20
440
0
LWPOLYLINE
5
149
100
AcDbEntity
8
0
100
AcDbPolyline
90
4
70
1
43
0.0
10
375
20
470
10
370
20
470
10
370
20
465
10
375
20
465
0
LWPOLYLINE
5
150
100
AcDbEntity
8
0
100
AcDbPolyline
90
4
70
1
43
0.0
10
395
20
425
10
390
20
425
10
390
20
420
10
395
20
420
0
LWPOLYLINE
5
151
100
AcDbEntity
8
0
100
AcDbPolyline
90
4
70
1
43
0.0
10
375
20
410
10
370
20
410
10
370
20
395
10
375
20
395
0
LWPOLYLINE
5
152
100
AcDbEntity
8
0
100
AcDbPolyline
90
4
70
1
43
0.0
10
375
20
380
10
370
20
380
10
370
20
365
10
375
20
365
0
LWPOLYLINE
5
153
100
AcDbEntity
8
0
100
AcDbPolyline
90
4
70
1
43
0.0
10
375
20
350
10
370
20
350
10
370
20
335
10
375
20
335
0
LWPOLYLINE
5
154
100
AcDbEntity
8
0
100
AcDbPolyline
90
4
70
1
43
0.0
10
395
20
420
10
390
20
420
10
390
20
410
10
395
20
410
0
LWPOLYLINE
5
155
100
AcDbEntity
8
0
100
AcDbPolyline
90
4
70
1
43
0.0
10
395
20
395
10
390
20
395
10
390
20
380
10
395
20
380
0
LWPOLYLINE
5
156
100
AcDbEntity
8
0
100
AcDbPolyline
90
4
70
1
43
0.0
10
395
20
365
10
390
20
365
10
390
20
350
10
395
20
350
0
LWPOLYLINE
5
157
100
AcDbEntity
8
0
100
AcDbPolyline
90
4
70
1
43
0.0
10
395
20
335
10
390
20
335
10
390
20
305
10
395
20
305
0
LWPOLYLINE
5
158
100
AcDbEntity
8
0
100
AcDbPolyline
90
4
70
1
43
0.0
10
420
20
305
10
400
20
305
10
400
20
310
10
420
20
310
0
LWPOLYLINE
5
159
100
AcDbEntity
8
0
100
AcDbPolyline
90
4
70
1
43
0.0
10
370
20
295
10
375
20
295
10
375
20
290
10
370
20
290
0
LWPOLYLINE
5
160
100
AcDbEntity
8
0
100
AcDbPolyline
90
4
70
1
43
0.0
10
375
20
270
10
369.99206659832305
20
270
10
369.99206659832305
20
265.01062406746394
10
375
20
265.01062406746394
0
LWPOLYLINE
5
161
100
AcDbEntity
8
0
100
AcDbPolyline
90
4
70
1
43
0.0
10
220
20
305
10
200
20
305
10
200
20
310
10
220
20
310
0
LWPOLYLINE
5
162
100
AcDbEntity
8
0
100
AcDbPolyline
90
4
70
1
43
0.0
10
240.00000357627869
20
295.00000439584255
10
235.00000350177288
20
295.00000439584255
10
235.00000350177288
20
290.00000432133675
10
240.00000357627869
20
290.00000432133675
0
LWPOLYLINE
5
163
100
AcDbEntity
8
0
100
AcDbPolyline
90
4
70
1
43
0.0
10
425
20
385
10
420
20
385
10
420
20
345
10
425
20
345
0
LWPOLYLINE
5
164
100
AcDbEntity
8
0
100
AcDbPolyline
90
8
70
1
43
0.0
10
375.03208218290399
20
195.5414432469471
10
370.03208218290399
20
195.5414432469471
10
325.03208218290399
20
195.5414432469471
10
325.03208218290399
20
190.5414432469471
10
370.03208218290399
20
190.5414432469471
10
370.03208218290399
20
195.5414432469471
10
370.03208218290399
20
155.5414432469471
10
375.03208218290399
20
155.5414432469471
0
LWPOLYLINE
5
165
100
AcDbEntity
8
0
100
AcDbPolyline
90
8
70
1
43
0.0
10
325.05128933885373
20
265.01062406746394
10
300
20
265.01062406746394
10
285.00000424683094
20
265.01062406746394
10
285.00000424683094
20
270.00000402331352
10
300
20
270.00000402331352
10
300
20
265.01062406746394
10
300
20
270
10
325.05128933885373
20
270
0
LWPOLYLINE
5
166
100
AcDbEntity
8
0
100
AcDbPolyline
90
8
70
1
43
0.0
10
375.03208218290399
20
115.54144324694711
10
370.03208218290399
20
115.54144324694711
10
370.03208218290399
20
75.541443246947111
10
325.03208218290399
20
75.541443246947111
10
325.03208218290399
20
80.541443246947111
10
370.03208218290399
20
80.541443246947111
10
370.03208218290399
20
75.541443246947111
10
375.03208218290399
20
75.541443246947111
0
LWPOLYLINE
5
167
100
AcDbEntity
8
0
100
AcDbPolyline
90
8
70
1
43
0.0
10
285.03208218290393
20
75.541443246947111
10
235.03208218290393
20
75.541443246947111
10
235.03208218290393
20
80.541443246947111
10
240.03208218290393
20
80.541443246947111
10
240.03208218290393
20
120.54144324694711
10
235.03208218290393
20
120.54144324694711
10
235.03208218290393
20
80.541443246947111
10
285.03208218290393
20
80.541443246947111
0
LWPOLYLINE
5
168
100
AcDbEntity
8
0
100
AcDbPolyline
90
4
70
1
43
0.0
10
195
20
350
10
200
20
350
10
200
20
390
10
195
20
390
0
LWPOLYLINE
5
169
100
AcDbEntity
8
0
100
AcDbPolyline
90
4
70
1
43
0.0
10
235.03208218290393
20
160.5414432469471
10
240.03208218290393
20
160.5414432469471
10
240.03208218290393
20
195.5414432469471
10
235.03208218290393
20
195.5414432469471
0
LWPOLYLINE
5
170
100
AcDbEntity
8
0
100
AcDbPolyline
90
4
70
1
43
0.0
10
325
20
470
10
285
20
470
10
285
20
465
10
325
20
465
0
LWPOLYLINE
5
171
100
AcDbEntity
8
0
100
AcDbPolyline
90
4
70
1
43
0.0
10
285.03208218290393
20
195.5414432469471
10
240.03208218290393
20
195.5414432469471
10
240.03208218290393
20
190.5414432469471
10
285.03208218290393
20
190.5414432469471
0
ENDSEC
0
SECTION
2
OBJECTS
0
DICTIONARY
5
C
100
AcDbDictionary
3
ACAD_GROUP
350
D
3
ACAD_MLINESTYLE
350
17
0
DICTIONARY
5
D
100
AcDbDictionary
0
DICTIONARY
5
1A
330
C
100
AcDbDictionary
0
DICTIONARY
5
17
100
AcDbDictionary
0
ENDSEC
0
EOF
