0
SECTION
2
HEADER
9
$INSUNITS
70
4
9
$ACADVER
1
AC1014
9
$HANDSEED
5
FFFF
0
ENDSEC
0
SECTION
2
TABLES
0
TABLE
2
VPORT
5
8
100
AcDbSymbolTable
0
ENDTAB
0
TABLE
2
LTYPE
5
5
100
AcDbSymbolTable
0
LTYPE
5
14
100
AcDbSymbolTableRecord
100
AcDbLinetypeTableRecord
2
BYBLOCK
70
0
0
LTYPE
5
15
100
AcDbSymbolTableRecord
100
AcDbLinetypeTableRecord
2
BYLAYER
70
0
0
LTYPE
5
16
100
AcDbSymbolTableRecord
100
AcDbLinetypeTableRecord
2
DASHED
70
0
3
Dashed __ __ __ __ __ __ __ __ __ __ __ __ __ _
72
65
73
2
40
0.75
49
0.5
74
0
49
-0.25
74
0
0
ENDTAB
0
TABLE
2
LAYER
5
2
100
AcDbSymbolTable
70
3
0
LAYER
5
50
100
AcDbSymbolTableRecord
100
AcDbLayerTableRecord
2
1
70
0
62
7
6
DASHED
0
LAYER
5
51
100
AcDbSymbolTableRecord
100
AcDbLayerTableRecord
2
0
70
0
62
7
6
CONTINUOUS
0
ENDTAB
0
TABLE
2
STYLE
5
3
100
AcDbSymbolTable
70
1
0
STYLE
5
11
100
AcDbSymbolTableRecord
100
AcDbTextStyleTableRecord
2
STANDARD
70
0
0
ENDTAB
0
TABLE
2
VIEW
5
6
100
AcDbSymbolTable
70
0
0
ENDTAB
0
TABLE
2
UCS
5
7
100
AcDbSymbolTable
70
0
0
ENDTAB
0
TABLE
2
APPID
5
9
100
AcDbSymbolTable
70
2
0
APPID
5
12
100
AcDbSymbolTableRecord
100
AcDbRegAppTableRecord
2
ACAD
70
0
0
ENDTAB
0
TABLE
2
DIMSTYLE
5
A
100
AcDbSymbolTable
70
1
0
ENDTAB
0
TABLE
2
BLOCK_RECORD
5
1
100
AcDbSymbolTable
70
1
0
BLOCK_RECORD
5
1F
100
AcDbSymbolTableRecord
100
AcDbBlockTableRecord
2
*MODEL_SPACE
0
BLOCK_RECORD
5
1B
100
AcDbSymbolTableRecord
100
AcDbBlockTableRecord
2
*PAPER_SPACE
0
ENDTAB
0
ENDSEC
0
SECTION
2
BLOCKS
0
BLOCK
5
20
100
AcDbEntity
100
AcDbBlockBegin
2
*MODEL_SPACE
0
ENDBLK
5
21
100
AcDbEntity
100
AcDbBlockEnd
0
BLOCK
5
1C
100
AcDbEntity
100
AcDbBlockBegin
2
*PAPER_SPACE
0
ENDBLK
5
1D
100
AcDbEntity
100
AcDbBlockEnd
0
ENDSEC
0
SECTION
2
ENTITIES
0
LWPOLYLINE
5
100
100
AcDbEntity
8
0
100
AcDbPolyline
90
4
70
1
43
0.0
10
-156.99999999999997
20
-99
10
-2.9999999999999893
20
-99
10
-2.9999999999999809
20
-3.0000000000000071
10
-156.99999999999997
20
-2.9999999999999987
0
LWPOLYLINE
5
101
100
AcDbEntity
8
0
100
AcDbPolyline
90
4
70
1
43
0.0
10
650
20
-400
10
480
20
-400
10
480
20
-250
10
650
20
-250
0
LWPOLYLINE
5
102
100
AcDbEntity
8
0
100
AcDbPolyline
90
8
70
1
43
0.0
10
650
20
-500
10
479.99999999999994
20
-500
10
479.99999999999994
20
-550
10
520
20
-550
10
520
20
-540
10
479.99999999999994
20
-540
10
479.99999999999994
20
-550
10
650
20
-550
0
LWPOLYLINE
5
103
100
AcDbEntity
8
0
100
AcDbPolyline
90
4
70
1
43
0.0
10
400
20
-400
10
350
20
-400
10
350
20
-250
10
400
20
-250
0
LWPOLYLINE
5
104
100
AcDbEntity
8
0
100
AcDbPolyline
90
12
70
1
43
0.0
10
760
20
-400
10
810
20
-400
10
800
20
-400
10
800
20
-390
10
810
20
-390
10
810
20
-400
10
810
20
-250.00000000000011
10
800
20
-250.00000000000011
10
800
20
-260
10
810
20
-260
10
810
20
-250.00000000000011
10
760
20
-250.00000000000011
0
LWPOLYLINE
5
105
100
AcDbEntity
8
0
100
AcDbPolyline
90
4
70
1
43
0.0
10
250
20
-400
10
79.999999999999972
20
-400
10
79.999999999999972
20
-250
10
250
20
-250
0
LINE
5
106
100
AcDbEntity
8
0
100
AcDbLine
10
250
20
-400
30
0
11
235
21
-400
31
0
0
LINE
5
107
100
AcDbEntity
8
0
100
AcDbLine
10
250
20
-395
30
0
11
250
21
-400
31
0
0
LWPOLYLINE
5
108
100
AcDbEntity
8
0
100
AcDbPolyline
90
4
70
1
43
0.0
10
235
20
-395
10
207
20
-395
10
207
20
-301
10
235
20
-301
0
LINE
5
109
100
AcDbEntity
8
0
100
AcDbLine
10
79.999999999999972
20
-250
30
0
11
100.99999999999996
21
-250
31
0
0
LINE
5
110
100
AcDbEntity
8
0
100
AcDbLine
10
79.999999999999972
20
-302.69999999999999
30
0
11
79.999999999999972
21
-250
31
0
0
CIRCLE
5
111
100
AcDbEntity
8
0
100
AcDbCircle
10
111
20
-317.69999999999999
30
0
40
10.000000000000002
210
0
220
0
230
1
0
LINE
5
112
100
AcDbEntity
8
0
100
AcDbLine
10
79.999999999999972
20
-400
30
0
11
97.299999999999969
21
-400
31
0
0
LINE
5
113
100
AcDbEntity
8
0
100
AcDbLine
10
79.999999999999972
20
-390.39999999999998
30
0
11
79.999999999999972
21
-400
31
0
0
CIRCLE
5
114
100
AcDbEntity
8
0
100
AcDbCircle
10
107.30000000000001
20
-390.39999999999998
30
0
40
5
210
0
220
0
230
1
0
LWPOLYLINE
5
115
100
AcDbEntity
8
0
100
AcDbPolyline
90
8
70
1
43
0.0
10
480
20
-150
10
480
20
-200
10
500
20
-200
10
500
20
-190
10
480
20
-190
10
480
20
-200
10
650
20
-200
10
650
20
-150
0
LINE
5
116
100
AcDbEntity
8
0
100
AcDbLine
10
620
20
-250
30
0
11
590
21
-250
31
0
0
LINE
5
117
100
AcDbEntity
8
0
100
AcDbLine
10
560
20
-250
30
0
11
530
21
-250
31
0
0
LINE
5
118
100
AcDbEntity
8
0
100
AcDbLine
10
650
20
-200
30
0
11
620
21
-200
31
0
0
LINE
5
119
100
AcDbEntity
8
0
100
AcDbLine
10
650
20
-190
30
0
11
650
21
-200
31
0
0
LINE
5
120
100
AcDbEntity
8
0
100
AcDbLine
10
590
20
-200
30
0
11
560
21
-200
31
0
0
LINE
5
121
100
AcDbEntity
8
0
100
AcDbLine
10
530
20
-200
30
0
11
480
21
-200
31
0
0
LINE
5
122
100
AcDbEntity
8
0
100
AcDbLine
10
480
20
-200
30
0
11
480
21
-190
31
0
0
LWPOLYLINE
5
123
100
AcDbEntity
8
0
100
AcDbPolyline
90
4
70
1
43
0.0
10
480
20
-270
10
490
20
-270
10
490
20
-300
10
480
20
-300
0
LWPOLYLINE
5
124
100
AcDbEntity
8
0
100
AcDbPolyline
90
4
70
1
43
0.0
10
480
20
-320
10
490
20
-320
10
490
20
-350
10
480
20
-350
0
LWPOLYLINE
5
125
100
AcDbEntity
8
0
100
AcDbPolyline
90
4
70
1
43
0.0
10
480
20
-370
10
490
20
-370
10
490
20
-390
10
480
20
-390
0
LWPOLYLINE
5
126
100
AcDbEntity
8
0
100
AcDbPolyline
90
4
70
1
43
0.0
10
390
20
-400
10
400
20
-400
10
400
20
-390
10
390
20
-390
0
LWPOLYLINE
5
127
100
AcDbEntity
8
0
100
AcDbPolyline
90
4
70
1
43
0.0
10
400
20
-370
10
390
20
-370
10
390
20
-350
10
400
20
-350
0
LWPOLYLINE
5
128
100
AcDbEntity
8
0
100
AcDbPolyline
90
4
70
1
43
0.0
10
400
20
-320
10
390
20
-320
10
390
20
-300
10
400
20
-300
0
LWPOLYLINE
5
129
100
AcDbEntity
8
0
100
AcDbPolyline
90
4
70
1
43
0.0
10
400
20
-270
10
390
20
-270
10
390
20
-250
10
400
20
-250
0
LWPOLYLINE
5
130
100
AcDbEntity
8
0
100
AcDbPolyline
90
4
70
1
43
0.0
10
480
20
-180
10
490
20
-180
10
490
20
-160
10
480
20
-160
0
LWPOLYLINE
5
131
100
AcDbEntity
8
0
100
AcDbPolyline
90
4
70
1
43
0.0
10
390
20
-260
10
380
20
-260
10
380
20
-250
10
390
20
-250
0
LWPOLYLINE
5
132
100
AcDbEntity
8
0
100
AcDbPolyline
90
4
70
1
43
0.0
10
360
20
-260
10
350
20
-260
10
350
20
-250
10
360
20
-250
0
LWPOLYLINE
5
133
100
AcDbEntity
8
0
100
AcDbPolyline
90
4
70
1
43
0.0
10
630
20
-400
10
600
20
-400
10
600
20
-390
10
630
20
-390
0
LWPOLYLINE
5
134
100
AcDbEntity
8
0
100
AcDbPolyline
90
4
70
1
43
0.0
10
580
20
-400
10
550
20
-400
10
550
20
-390
10
580
20
-390
0
LWPOLYLINE
5
135
100
AcDbEntity
8
0
100
AcDbPolyline
90
4
70
1
43
0.0
10
530
20
-400
10
500
20
-400
10
500
20
-390
10
530
20
-390
0
LWPOLYLINE
5
136
100
AcDbEntity
8
0
100
AcDbPolyline
90
4
70
1
43
0.0
10
650
20
-500
10
630
20
-500
10
630
20
-510
10
650
20
-510
0
LWPOLYLINE
5
137
100
AcDbEntity
8
0
100
AcDbPolyline
90
4
70
1
43
0.0
10
600
20
-500
10
580
20
-500
10
580
20
-510
10
600
20
-510
0
LWPOLYLINE
5
138
100
AcDbEntity
8
0
100
AcDbPolyline
90
4
70
1
43
0.0
10
550
20
-500
10
530
20
-500
10
530
20
-510
10
550
20
-510
0
LWPOLYLINE
5
139
100
AcDbEntity
8
0
100
AcDbPolyline
90
4
70
1
43
0.0
10
500
20
-500
10
480
20
-500
10
480
20
-510
10
500
20
-510
0
LWPOLYLINE
5
140
100
AcDbEntity
8
0
100
AcDbPolyline
90
4
70
1
43
0.0
10
480
20
-540
10
490
20
-540
10
490
20
-520
10
480
20
-520
0
LWPOLYLINE
5
141
100
AcDbEntity
8
0
100
AcDbPolyline
90
4
70
1
43
0.0
10
390
20
-400
10
380
20
-400
10
380
20
-390
10
390
20
-390
0
LWPOLYLINE
5
142
100
AcDbEntity
8
0
100
AcDbPolyline
90
4
70
1
43
0.0
10
360
20
-400
10
350
20
-400
10
350
20
-390
10
360
20
-390
0
LWPOLYLINE
5
143
100
AcDbEntity
8
0
100
AcDbPolyline
90
4
70
1
43
0.0
10
650
20
-380
10
640
20
-380
10
640
20
-350
10
650
20
-350
0
LWPOLYLINE
5
144
100
AcDbEntity
8
0
100
AcDbPolyline
90
4
70
1
43
0.0
10
650
20
-330
10
640
20
-330
10
640
20
-300
10
650
20
-300
0
LWPOLYLINE
5
145
100
AcDbEntity
8
0
100
AcDbPolyline
90
4
70
1
43
0.0
10
650
20
-290
10
640
20
-290
10
640
20
-260
10
650
20
-260
0
LWPOLYLINE
5
146
100
AcDbEntity
8
0
100
AcDbPolyline
90
4
70
1
43
0.0
10
760
20
-400
10
770
20
-400
10
770
20
-380
10
760
20
-380
0
LWPOLYLINE
5
147
100
AcDbEntity
8
0
100
AcDbPolyline
90
4
70
1
43
0.0
10
760
20
-350
10
770
20
-350
10
770
20
-330
10
760
20
-330
0
LWPOLYLINE
5
148
100
AcDbEntity
8
0
100
AcDbPolyline
90
4
70
1
43
0.0
10
760
20
-300
10
770
20
-300
10
770
20
-290
10
760
20
-290
0
LWPOLYLINE
5
149
100
AcDbEntity
8
0
100
AcDbPolyline
90
4
70
1
43
0.0
10
760
20
-260
10
770
20
-260
10
770
20
-250
10
760
20
-250
0
LWPOLYLINE
5
150
100
AcDbEntity
8
0
100
AcDbPolyline
90
4
70
1
43
0.0
10
650
20
-180
10
640
20
-180
10
640
20
-160
10
650
20
-160
0
LWPOLYLINE
5
151
100
AcDbEntity
8
0
100
AcDbPolyline
90
4
70
1
43
0.0
10
780
20
-250
10
770
20
-250
10
770
20
-260
10
780
20
-260
0
LWPOLYLINE
5
152
100
AcDbEntity
8
0
100
AcDbPolyline
90
4
70
1
43
0.0
10
630
20
-250
10
600
20
-250
10
600
20
-260
10
630
20
-260
0
LWPOLYLINE
5
153
100
AcDbEntity
8
0
100
AcDbPolyline
90
4
70
1
43
0.0
10
580
20
-250
10
550
20
-250
10
550
20
-260
10
580
20
-260
0
LWPOLYLINE
5
154
100
AcDbEntity
8
0
100
AcDbPolyline
90
4
70
1
43
0.0
10
530
20
-250
10
500
20
-250
10
500
20
-260
10
530
20
-260
0
LWPOLYLINE
5
155
100
AcDbEntity
8
0
100
AcDbPolyline
90
4
70
1
43
0.0
10
650
20
-190
10
630
20
-190
10
630
20
-200
10
650
20
-200
0
LWPOLYLINE
5
156
100
AcDbEntity
8
0
100
AcDbPolyline
90
4
70
1
43
0.0
10
600
20
-190
10
580
20
-190
10
580
20
-200
10
600
20
-200
0
LWPOLYLINE
5
157
100
AcDbEntity
8
0
100
AcDbPolyline
90
4
70
1
43
0.0
10
550
20
-190
10
530
20
-190
10
530
20
-200
10
550
20
-200
0
LWPOLYLINE
5
158
100
AcDbEntity
8
0
100
AcDbPolyline
90
4
70
1
43
0.0
10
650
20
-540
10
640
20
-540
10
640
20
-520
10
650
20
-520
0
LWPOLYLINE
5
159
100
AcDbEntity
8
0
100
AcDbPolyline
90
4
70
1
43
0.0
10
780
20
-400
10
770
20
-400
10
770
20
-390
10
780
20
-390
0
LWPOLYLINE
5
160
100
AcDbEntity
8
0
100
AcDbPolyline
90
4
70
1
43
0.0
10
220
20
-250
10
180
20
-250
10
180
20
-260
10
220
20
-260
0
LWPOLYLINE
5
161
100
AcDbEntity
8
0
100
AcDbPolyline
90
4
70
1
43
0.0
10
150
20
-250
10
110
20
-250
10
110
20
-260
10
150
20
-260
0
LWPOLYLINE
5
162
100
AcDbEntity
8
0
100
AcDbPolyline
90
4
70
1
43
0.0
10
80
20
-270
10
90
20
-270
10
90
20
-310
10
80
20
-310
0
LWPOLYLINE
5
163
100
AcDbEntity
8
0
100
AcDbPolyline
90
4
70
1
43
0.0
10
80
20
-340
10
90
20
-340
10
90
20
-380
10
80
20
-380
0
LWPOLYLINE
5
164
100
AcDbEntity
8
0
100
AcDbPolyline
90
4
70
1
43
0.0
10
120
20
-400
10
150
20
-400
10
150
20
-390
10
120
20
-390
0
LWPOLYLINE
5
165
100
AcDbEntity
8
0
100
AcDbPolyline
90
4
70
1
43
0.0
10
170
20
-400
10
200
20
-400
10
200
20
-390
10
170
20
-390
0
LWPOLYLINE
5
166
100
AcDbEntity
8
0
100
AcDbPolyline
90
4
70
1
43
0.0
10
250
20
-370
10
240
20
-370
10
240
20
-330
10
250
20
-330
0
LWPOLYLINE
5
167
100
AcDbEntity
8
0
100
AcDbPolyline
90
4
70
1
43
0.0
10
650
20
-150
10
620
20
-150
10
620
20
-160
10
650
20
-160
0
LWPOLYLINE
5
168
100
AcDbEntity
8
0
100
AcDbPolyline
90
4
70
1
43
0.0
10
580
20
-150
10
550
20
-150
10
550
20
-160
10
580
20
-160
0
LWPOLYLINE
5
169
100
AcDbEntity
8
0
100
AcDbPolyline
90
4
70
1
43
0.0
10
510
20
-150
10
480
20
-150
10
480
20
-160
10
510
20
-160
0
LWPOLYLINE
5
170
100
AcDbEntity
8
0
100
AcDbPolyline
90
4
70
1
43
0.0
10
350
20
-270
10
360
20
-270
10
360
20
-260
10
350
20
-260
0
LWPOLYLINE
5
171
100
AcDbEntity
8
0
100
AcDbPolyline
90
4
70
1
43
0.0
10
360
20
-340
10
350
20
-340
10
350
20
-310
10
360
20
-310
0
LWPOLYLINE
5
172
100
AcDbEntity
8
0
100
AcDbPolyline
90
4
70
1
43
0.0
10
360
20
-390
10
350
20
-390
10
350
20
-380
10
360
20
-380
0
LWPOLYLINE
5
173
100
AcDbEntity
8
0
100
AcDbPolyline
90
4
70
1
43
0.0
10
570
20
-540
10
550
20
-540
10
550
20
-550
10
570
20
-550
0
LWPOLYLINE
5
174
100
AcDbEntity
8
0
100
AcDbPolyline
90
4
70
1
43
0.0
10
600
20
-550
10
650
20
-550
10
650
20
-540
10
600
20
-540
0
LWPOLYLINE
5
175
100
AcDbEntity
8
0
100
AcDbPolyline
90
4
70
1
43
0.0
10
250
20
-310
10
240
20
-310
10
240
20
-270
10
250
20
-270
0
LWPOLYLINE
5
176
100
AcDbEntity
8
0
100
AcDbPolyline
90
4
70
1
43
0.0
10
810
20
-370
10
800
20
-370
10
800
20
-390
10
810
20
-390
0
LWPOLYLINE
5
177
100
AcDbEntity
8
0
100
AcDbPolyline
90
4
70
1
43
0.0
10
810
20
-330
10
800
20
-330
10
800
20
-310
10
810
20
-310
0
LWPOLYLINE
5
178
100
AcDbEntity
8
0
100
AcDbPolyline
90
4
70
1
43
0.0
10
810
20
-270
10
800
20
-270
10
800
20
-260
10
810
20
-260
0
ENDSEC
0
SECTION
2
OBJECTS
0
DICTIONARY
5
C
100
AcDbDictionary
3
ACAD_GROUP
350
D
3
ACAD_MLINESTYLE
350
17
0
DICTIONARY
5
D
100
AcDbDictionary
0
DICTIONARY
5
1A
330
C
100
AcDbDictionary
0
DICTIONARY
5
17
100
AcDbDictionary
0
ENDSEC
0
EOF
